# xmcd CD database file
#
# Track frame offsets:
#	150
#	48467
#	78505
#	112345
#	145780
#	176595
#	202612
#	232520
#	282900
#
# Disc length: 4440 seconds
#
# Revision: 1
# Processed by: cddbd v1.5PL3 Copyright (c) Steve Scherf et al.
# Submitted via: CDex 1.51
#
DISCID=72115609
DTITLE=MISIA - REMIX 2003 KISS IN THE SKY  Disc2
DYEAR=2003
DGENRE=Pop
TTITLE0=眠れぬ夜は君のせい (Joe Claussell Remix)
TTITLE1=Shining Star (DJ Spinna Remix)
TTITLE2=恋唄 (Osunlade Remix)
TTITLE3=Fly away (Malawi Rocks Remix)
TTITLE4=太陽がいるから (Frankie Knuckles Remix)
TTITLE5=飛び方を忘れた小さな鳥 (Malawi Rocks Remix)
TTITLE6=果てなく続くストーリー (Hex Hector Remix)
TTITLE7=Always (DJ Gomi Remix)
TTITLE8=CCCD
EXTD=YEAR: 2003
EXTT0=
EXTT1=
EXTT2=
EXTT3=
EXTT4=
EXTT5=
EXTT6=
EXTT7=
EXTT8=
PLAYORDER=
